<?xml version="1.0" encoding="UTF-8" standalone="no"?>
<!-- Created with Inkscape (http://www.inkscape.org/) -->

<svg
   width="109.46462mm"
   height="26.218084mm"
   viewBox="0 0 109.46462 26.218084"
   version="1.1"
   id="svg1"
   xml:space="preserve"
   xmlns="http://www.w3.org/2000/svg"
   xmlns:svg="http://www.w3.org/2000/svg"><defs
     id="defs1" /><g
     id="layer1"
     transform="translate(-41.939117,-27.183663)"><g
       id="g4"
       transform="translate(-19.967545,-189.37857)"><path
         d="m 95.124565,218.55013 h 4.100019 l 14.269856,18.82693 v -18.82693 h 2.95441 V 241.055 h -4.10001 L 98.078984,222.22808 V 241.055 h -2.954419 z m 29.699205,0 h 3.04483 v 9.51138 l 10.09935,-9.51138 h 3.91912 l -11.16957,10.49121 11.96842,12.01366 h -4.00951 L 127.8686,230.21709 V 241.055 h -3.04483 z"
         id="text1-7"
         style="font-size:3.52777px;font-family:OpenSymbol;-inkscape-font-specification:'OpenSymbol, Normal';letter-spacing:0.264583px;fill:#144c4b;stroke:#144c4b;stroke-width:3.15028"
         aria-label="NKZ" /><path
         d="m 150.54351,218.59734 h 18.83608 v 2.31157 l -15.15882,17.54715 h 15.52817 v 2.55173 h -19.57479 v -2.31157 l 15.15881,-17.54714 h -14.78945 z"
         style="font-size:3.52777px;font-family:OpenSymbol;-inkscape-font-specification:'OpenSymbol, Normal';letter-spacing:0.264583px;fill:#144c4b;stroke:#144c4b;stroke-width:3.2447"
         id="path1" /></g><g
       id="g3"
       transform="matrix(0.95845208,0,0,0.95845208,58.633762,-267.95127)"
       style="stroke-width:2.46022;stroke-dasharray:none"><g
         id="g5"
         transform="matrix(0.90826035,0,0,0.90826035,-38.8613,166.88169)"><g
           id="g6"
           transform="matrix(1.0216182,0,0,1.0216182,-2.2960826,-4.0082594)"><path
             style="fill:none;fill-opacity:1;stroke:#144c4b;stroke-width:4.18369;stroke-linecap:round;stroke-dasharray:none"
             d="M 30.143836,180.67808 43.486783,167.59667"
             id="path2" /><path
             style="fill:#144c4b;fill-opacity:1;stroke:#144c4b;stroke-width:2.46022;stroke-linecap:round;stroke-dasharray:none"
             d="m 54,157.37671 c -22.191781,-2.58904 -19.510274,18.86301 -19.510274,18.86301 0,0 20.619863,4.53082 19.510274,-18.86301 z"
             id="path3" /><circle
             style="fill:#ffffff;stroke:#144c4b;stroke-width:2.80521;stroke-linecap:round;stroke-dasharray:none"
             id="path4"
             cx="29.882811"
             cy="180.88515"
             r="3.123462" /><path
             style="fill:none;fill-opacity:1;stroke:#f9f9f9;stroke-width:2.46022;stroke-linecap:round;stroke-dasharray:none"
             d="m 37.856172,173.26605 6.486808,-6.49334"
             id="path2-3" /></g></g></g></g></svg>
